Coordinates
version=1
nRows=37
nColumns=38
inDegrees=no

Units are S.I. units (second, meters, Newtons, ...)
If the header above contains a line with 'inDegrees', this indicates whether rotational values are in degrees (yes) or radians (no).

endheader
time	pelvis_tilt	pelvis_list	pelvis_rotation	pelvis_tx	pelvis_ty	pelvis_tz	hip_flexion_r	hip_adduction_r	hip_rotation_r	knee_angle_r	ankle_angle_r	subtalar_angle_r	mtp_angle_r	hip_flexion_l	hip_adduction_l	hip_rotation_l	knee_angle_l	ankle_angle_l	subtalar_angle_l	mtp_angle_l	lumbar_extension	lumbar_bending	lumbar_rotation	arm_flex_r	arm_add_r	arm_rot_r	elbow_flex_r	pro_sup_r	wrist_flex_r	wrist_dev_r	arm_flex_l	arm_add_l	arm_rot_l	elbow_flex_l	pro_sup_l	wrist_flex_l	wrist_dev_l
0	-2.6671	1.23198	-1.8519	0.877008	-0.569071	0.93056	-0.147858	-0.284107	-0.610655	0.664519	-0.0428612	0	0	0.15833	0.277277	0.230141	1.40751	-0.0588522	0	0	-0.278066	-0.0394335	0.163528	-0.264117	-0.860915	-0.131686	1.7209	0.380556	0	0	0.748543	-0.574972	1.02166	1.1591	0.486746	0	0
0.01	-2.66014	1.23198	-1.865	0.877745	-0.560116	0.930519	-0.158698	-0.285028	-0.611631	0.661349	-0.0380892	0	0	0.179479	0.276819	0.216649	1.37295	-0.0646466	0	0	-0.274402	-0.0446433	0.171267	-0.258724	-0.860523	-0.127401	1.71555	0.379041	0	0	0.751342	-0.57251	1.02581	1.15353	0.481664	0	0
0.02	-2.76571	1.19929	-1.80022	0.883729	-0.54675	0.933643	-0.227062	-0.237325	-0.581733	0.602561	-0.0379441	0	0	0.185307	0.00693078	-0.259086	1.36114	-0.194662	0	0	-0.309905	-0.0280864	0.216329	-0.269349	-0.8664	-0.135462	1.72306	0.377966	0	0	0.758633	-0.573395	1.03887	1.15583	0.474689	0	0
0.03	-2.76226	1.19893	-1.8074	0.88407	-0.537295	0.933681	-0.241698	-0.236009	-0.583459	0.595061	-0.0330274	0	0	0.197675	0.00931706	-0.270195	1.31936	-0.201388	0	0	-0.309711	-0.0309267	0.221838	-0.270518	-0.865082	-0.138455	1.72372	0.381691	0	0	0.760072	-0.571954	1.04098	1.15394	0.475164	0	0
0.04	-2.75962	1.19966	-1.81259	0.884236	-0.527795	0.933453	-0.255734	-0.234654	-0.587073	0.587676	-0.029607	0	0	0.209037	0.0116426	-0.279633	1.27351	-0.207605	0	0	-0.308534	-0.0328638	0.225842	-0.270309	-0.860991	-0.14039	1.72346	0.383707	0	0	0.761028	-0.57168	1.04253	1.1531	0.47491	0	0
0.05	-2.75734	1.20091	-1.81616	0.884238	-0.518316	0.93305	-0.269795	-0.23266	-0.59072	0.580356	-0.0241391	0	0	0.218638	0.0128381	-0.289347	1.22425	-0.217912	0	0	-0.307314	-0.0343069	0.228474	-0.270639	-0.862572	-0.141993	1.72536	0.377823	0	0	0.761772	-0.571914	1.04363	1.1532	0.474615	0	0
0.06	-2.75637	1.20305	-1.81745	0.884053	-0.508862	0.932423	-0.283034	-0.229887	-0.594626	0.57432	-0.0192103	0	0	0.226772	0.0122549	-0.302003	1.17276	-0.226462	0	0	-0.305292	-0.0346901	0.229961	-0.270021	-0.859786	-0.143118	1.72476	0.383035	0	0	0.761677	-0.57184	1.04347	1.15354	0.473472	0	0
0.07	-2.75698	1.20549	-1.81652	0.883729	-0.499402	0.931676	-0.296416	-0.226303	-0.599026	0.568205	-0.0134215	0	0	0.232441	0.00969495	-0.320459	1.11755	-0.236071	0	0	-0.302939	-0.0340147	0.231497	-0.271157	-0.859209	-0.145927	1.72541	0.387463	0	0	0.762346	-0.570889	1.04427	1.15292	0.473146	0	0
0.08	-2.75811	1.20761	-1.81455	0.88327	-0.489936	0.930825	-0.310299	-0.222642	-0.603772	0.56145	-0.00640176	0	0	0.234524	0.00555209	-0.34585	1.05977	-0.247447	0	0	-0.30092	-0.0330525	0.232809	-0.272714	-0.858293	-0.149412	1.72622	0.391268	0	0	0.763878	-0.569538	1.04614	1.15168	0.473197	0	0
0.09	-2.75788	1.21085	-1.81297	0.882608	-0.480405	0.929766	-0.322808	-0.219496	-0.610015	0.555666	-0.000799026	0	0	0.234863	0.00163852	-0.37414	1.00049	-0.254163	0	0	-0.297512	-0.0319564	0.23287	-0.273258	-0.856993	-0.151702	1.72662	0.393114	0	0	0.764774	-0.568399	1.04742	1.15024	0.472901	0	0
0.1	-2.75663	1.21355	-1.81219	0.881846	-0.470934	0.928643	-0.335491	-0.216709	-0.615069	0.550042	0.00593935	0	0	0.231626	-0.00161873	-0.405803	0.937668	-0.261422	0	0	-0.294964	-0.0312884	0.232443	-0.273718	-0.855952	-0.154265	1.72734	0.394895	0	0	0.766141	-0.567827	1.04889	1.14937	0.472918	0	0
0.11	-2.75483	1.21759	-1.81116	0.880905	-0.461519	0.927297	-0.345946	-0.213879	-0.619797	0.546453	0.011598	0	0	0.228104	-0.00194745	-0.431574	0.872173	-0.263343	0	0	-0.29113	-0.0299821	0.231437	-0.274713	-0.854996	-0.157296	1.7283	0.396459	0	0	0.767393	-0.566565	1.05012	1.14784	0.47302	0	0
0.12	-2.64551	1.26113	-1.87406	0.875818	-0.45732	0.922743	-0.295116	-0.240167	-0.660081	0.594734	0.0395445	0	0	0.197953	0.240447	0.23549	0.64108	-0.130972	0	0	-0.247941	-0.0457797	0.185789	-0.260919	-0.834574	-0.157082	1.71808	0.422821	0	0	0.767737	-0.564266	1.04316	1.14	0.479689	0	0
0.13	-2.74723	1.22721	-1.80887	0.878447	-0.443004	0.924084	-0.364431	-0.209661	-0.637112	0.544971	0.0312091	0	0	0.22005	0.0139258	-0.442287	0.7279	-0.262643	0	0	-0.282643	-0.0277494	0.225837	-0.277665	-0.851033	-0.166542	1.73097	0.40377	0	0	0.771607	-0.56254	1.05303	1.14383	0.468994	0	0
0.14	-2.66558	1.26344	-1.85084	0.87464	-0.437902	0.920112	-0.326847	-0.222184	-0.665397	0.576865	0.0461745	0	0	0.171309	0.211588	0.183368	0.463778	-0.172937	0	0	-0.248038	-0.0392217	0.18714	-0.264173	-0.836356	-0.162366	1.72165	0.416397	0	0	0.774834	-0.561787	1.05028	1.13722	0.473753	0	0
0.15	-2.67351	1.26682	-1.84136	0.873714	-0.42779	0.918394	-0.339476	-0.215215	-0.670377	0.573076	0.0532114	0	0	0.161822	0.198878	0.150368	0.384908	-0.184957	0	0	-0.243942	-0.0356561	0.188572	-0.26766	-0.834883	-0.166911	1.72257	0.41934	0	0	0.777679	-0.559253	1.0546	1.13403	0.472137	0	0
0.16	-2.68504	1.26747	-1.82953	0.87279	-0.417506	0.91694	-0.356853	-0.207259	-0.674864	0.563839	0.0573188	0	0	0.147529	0.186461	0.11225	0.306187	-0.207742	0	0	-0.242472	-0.031619	0.191722	-0.272415	-0.834377	-0.172429	1.72415	0.420091	0	0	0.780773	-0.554972	1.05881	1.12912	0.469336	0	0
0.17	-2.6955	1.26654	-1.8196	0.871822	-0.407057	0.91568	-0.376525	-0.199432	-0.676495	0.551042	0.0586731	0	0	0.13	0.176591	0.0725891	0.230552	-0.236649	0	0	-0.241981	-0.0282044	0.195511	-0.276865	-0.835231	-0.176543	1.7255	0.416976	0	0	0.782907	-0.549751	1.06164	1.12299	0.465974	0	0
0.18	-2.71753	1.26389	-1.80534	0.869814	-0.394956	0.913828	-0.398506	-0.196762	-0.681606	0.545845	0.0605679	0	0	0.178622	0.0971112	-0.247539	0.330958	-0.234406	0	0	-0.238816	-0.0189846	0.208195	-0.291472	-0.842711	-0.186183	1.7312	0.41255	0	0	0.77949	-0.539133	1.06154	1.11401	0.463513	0	0
0.19	-2.70337	1.27087	-1.81138	0.869137	-0.385729	0.912483	-0.404282	-0.191583	-0.682957	0.540244	0.0613649	0	0	0.102305	0.166716	0.0171935	0.106606	-0.281995	0	0	-0.231275	-0.022155	0.202875	-0.287682	-0.833624	-0.186876	1.72677	0.41963	0	0	0.779857	-0.532937	1.05661	1.10354	0.468948	0	0
0.2	-2.70318	1.27465	-1.81325	0.867693	-0.374885	0.910622	-0.410945	-0.193277	-0.682135	0.548644	0.0641086	0	0	0.0912726	0.165119	-0.00176738	0.065644	-0.289948	0	0	-0.223884	-0.0202163	0.206801	-0.291562	-0.833448	-0.189992	1.72725	0.418878	0	0	0.776117	-0.526514	1.0516	1.09647	0.470175	0	0
0.21	-2.70173	1.2776	-1.81699	0.866228	-0.364074	0.908724	-0.417177	-0.196521	-0.67975	0.558872	0.0634529	0	0	0.0829416	0.165166	-0.0143234	0.0482197	-0.283036	0	0	-0.219012	-0.0205423	0.207421	-0.28944	-0.833466	-0.18803	1.72678	0.4182	0	0	0.775076	-0.530485	1.05299	1.10096	0.470322	0	0
0.22	-2.6951	1.27816	-1.82739	0.864782	-0.353248	0.907058	-0.424504	-0.204182	-0.679647	0.572208	0.0678688	0	0	0.0742425	0.168144	-0.0274609	0.0445994	-0.285442	0	0	-0.217126	-0.023648	0.208868	-0.286962	-0.832658	-0.186901	1.72677	0.421579	0	0	0.775816	-0.536857	1.05713	1.1088	0.466181	0	0
0.23	-2.68498	1.27976	-1.84094	0.86317	-0.342438	0.905513	-0.429229	-0.212245	-0.675483	0.585539	0.0665298	0	0	0.0705272	0.17279	-0.0327634	0.0605672	-0.281831	0	0	-0.213432	-0.0261634	0.213123	-0.290218	-0.832968	-0.190047	1.72829	0.420142	0	0	0.774519	-0.535183	1.05592	1.10823	0.465262	0	0
0.24	-2.5277	1.30599	-2.01142	0.860658	-0.330947	0.898347	-0.254841	-0.364747	-0.698132	0.88707	0.0105807	0	0	0.118192	0.213598	-0.0365671	0.104685	-0.255809	0	0	-0.165378	-0.0617764	0.227636	-0.300436	-0.831057	-0.193444	1.73106	0.417852	0	0	0.77524	-0.541504	1.06854	1.11591	0.458087	0	0
0.25	-2.65865	1.28184	-1.87078	0.859236	-0.32088	0.902825	-0.439747	-0.226006	-0.659623	0.603901	0.051542	0	0	0.0672328	0.187186	-0.0182004	0.122609	-0.249828	0	0	-0.208326	-0.0334305	0.218343	-0.297427	-0.831619	-0.199339	1.73182	0.420712	0	0	0.775999	-0.53502	1.05992	1.1112	0.466329	0	0
0.26	-2.64512	1.28125	-1.88545	0.856837	-0.309925	0.901969	-0.447695	-0.231874	-0.647073	0.608248	0.042619	0	0	0.0603751	0.19589	-0.0110507	0.137295	-0.250854	0	0	-0.206814	-0.0364118	0.220883	-0.302804	-0.832059	-0.204721	1.73376	0.421668	0	0	0.774546	-0.531973	1.05869	1.10962	0.467986	0	0
0.27	-2.62829	1.28098	-1.90248	0.85426	-0.298887	0.901173	-0.453722	-0.239032	-0.632981	0.61595	0.0433915	0	0	0.0550859	0.205231	-0.00571695	0.143992	-0.254383	0	0	-0.205236	-0.0410141	0.220801	-0.305921	-0.833074	-0.206781	1.7348	0.421156	0	0	0.772949	-0.532915	1.05834	1.11301	0.467277	0	0
0.28	-2.60884	1.28154	-1.92064	0.851543	-0.287701	0.900542	-0.456625	-0.24664	-0.620394	0.628758	0.0307313	0	0	0.0516055	0.213826	-0.00163461	0.144283	-0.274969	0	0	-0.202103	-0.0458279	0.220007	-0.310613	-0.832338	-0.21017	1.73576	0.422217	0	0	0.770858	-0.532386	1.0575	1.11456	0.467055	0	0
0.29	-2.58239	1.28417	-1.94414	0.848539	-0.276356	0.899912	-0.456867	-0.256231	-0.605262	0.640133	0.011777	0	0	0.0501248	0.222801	0.00375563	0.1405	-0.308741	0	0	-0.195166	-0.0513018	0.219092	-0.318162	-0.830399	-0.215374	1.73653	0.424092	0	0	0.768143	-0.529082	1.05646	1.11255	0.468883	0	0
0.3	-2.55465	1.28659	-1.96799	0.845233	-0.2649	0.899456	-0.455341	-0.267161	-0.591547	0.655974	-0.0262381	0	0	0.0464475	0.232073	0.00763265	0.131198	-0.358786	0	0	-0.188474	-0.057375	0.215932	-0.323817	-0.82671	-0.219818	1.73628	0.432165	0	0	0.765672	-0.529318	1.05741	1.11447	0.47303	0	0
0.31	-2.53484	1.29096	-1.98493	0.841831	-0.253654	0.899097	-0.449942	-0.27576	-0.56477	0.672959	-0.043267	0	0	0.0470077	0.238487	0.0123311	0.134306	-0.375334	0	0	-0.180944	-0.0591622	0.214556	-0.331093	-0.825252	-0.225309	1.73682	0.43658	0	0	0.761201	-0.526042	1.05479	1.11315	0.476822	0	0
0.32	-2.51654	1.2972	-1.99955	0.838205	-0.242616	0.898892	-0.445832	-0.281427	-0.508277	0.678074	-0.0905054	0	0	0.0521257	0.243944	0.0220926	0.149252	-0.381017	0	0	-0.171987	-0.0590222	0.212118	-0.337811	-0.827647	-0.22757	1.73661	0.431776	0	0	0.755609	-0.522152	1.05117	1.11101	0.479877	0	0
0.33	-2.50023	1.30118	-2.01062	0.834509	-0.23157	0.899066	-0.437088	-0.289902	-0.473063	0.697646	-0.131044	0	0	0.0550633	0.249782	0.0364214	0.17126	-0.375247	0	0	-0.165324	-0.0590184	0.208485	-0.344837	-0.827734	-0.231602	1.73651	0.43276	0	0	0.750376	-0.517305	1.04722	1.10767	0.482266	0	0
0.34	-2.4867	1.30147	-2.01784	0.830868	-0.220691	0.8997	-0.425861	-0.301003	-0.449967	0.730702	-0.182809	0	0	0.0526997	0.256813	0.0562787	0.194991	-0.362694	0	0	-0.164084	-0.0614104	0.200756	-0.345981	-0.827777	-0.231113	1.73505	0.43431	0	0	0.748293	-0.520065	1.04863	1.11238	0.483728	0	0
0.35	-2.47237	1.30066	-2.02673	0.827352	-0.209976	0.900732	-0.409894	-0.314355	-0.428546	0.770868	-0.239157	0	0	0.0473221	0.26482	0.0784645	0.214891	-0.350505	0	0	-0.162835	-0.0632095	0.197594	-0.352938	-0.826603	-0.236662	1.73497	0.435935	0	0	0.744739	-0.512547	1.04406	1.10553	0.487818	0	0
0.36	-2.46015	1.29698	-2.03537	0.824146	-0.199554	0.902094	-0.391203	-0.33015	-0.40667	0.817171	-0.297575	0	0	0.0376911	0.273344	0.0981406	0.230448	-0.339047	0	0	-0.165812	-0.0667731	0.194706	-0.356688	-0.825939	-0.240228	1.73456	0.436963	0	0	0.743594	-0.508345	1.04218	1.10231	0.490435	0	0
